<?xml version="1.0" encoding="utf-8"?>
<!-- Generator: Adobe Illustrator 25.3.1, SVG Export Plug-In . SVG Version: 6.00 Build 0)  -->
<svg version="1.1" id="Layer_1" xmlns="http://www.w3.org/2000/svg" xmlns:xlink="http://www.w3.org/1999/xlink" x="0px" y="0px"
	 viewBox="0 0 512 512" style="enable-background:new 0 0 512 512;" xml:space="preserve">
<style type="text/css">
	.st0{fill:#E90000;}
</style>
<path class="st0" d="M256,0C114.8,0,0,114.8,0,256s114.8,256,256,256s256-114.8,256-256S397.2,0,256,0z M468.3,234.7h-85
	C379,167.3,354.1,103,312.1,50.2C396,73.1,459.4,146,468.3,234.7z M256,460.5c-49.4-48.8-79.4-113.9-84.5-183.2h169.1
	C335.4,346.6,305.4,411.7,256,460.5z M171.5,234.7c5.1-69.3,35.1-134.4,84.5-183.2c49.4,48.8,79.4,113.9,84.5,183.2L171.5,234.7z
	 M199.9,50.2c-42,52.8-66.9,117.2-71.2,184.5h-85C52.6,146,116,73.1,199.9,50.2z M43.7,277.3h85c4.3,67.3,29.1,131.7,71.2,184.5
	C116,438.9,52.6,366,43.7,277.3z M312.1,461.8c42-52.8,66.9-117.2,71.2-184.5h85C459.4,366,396,438.9,312.1,461.8z"/>
</svg>
