<svg id="Layer_1" data-name="Layer 1" xmlns="http://www.w3.org/2000/svg" viewBox="0 0 512 512"><defs><style>.cls-1{fill:#b1ff65;}</style></defs><path class="cls-1" d="M256,0C114.84,0,0,114.84,0,256S114.84,512,256,512,512,397.16,512,256,397.16,0,256,0ZM468.27,234.67h-85A330,330,0,0,0,312.13,50.18C396,73.07,459.42,146,468.27,234.67ZM256,460.54a287.15,287.15,0,0,1-84.53-183.2H340.53A287.15,287.15,0,0,1,256,460.54ZM171.47,234.67A287.17,287.17,0,0,1,256,51.46a287.15,287.15,0,0,1,84.53,183.2Zm28.4-184.49A330,330,0,0,0,128.7,234.67h-85C52.58,146,116,73.07,199.87,50.18ZM43.73,277.33h85A330,330,0,0,0,199.9,461.82C116,438.93,52.58,366.05,43.73,277.33Zm268.4,184.49A330,330,0,0,0,383.3,277.33h85C459.42,366.05,396,438.93,312.13,461.82Z"/></svg>